<svg width="24" height="22" viewBox="0 0 24 22" fill="none" xmlns="http://www.w3.org/2000/svg">
<path d="M2.01218 9.75031L2.0122 9.75001H2C1.66848 9.75001 1.35054 9.88171 1.11612 10.1161C0.881696 10.3505 0.75 10.6685 0.75 11C0.75 11.3315 0.881696 11.6495 1.11612 11.8839C1.35054 12.1183 1.66848 12.25 2 12.25V12.2503L2.01218 12.2497L3.83061 12.161C4.1314 14.3233 5.27059 16.2135 6.91362 17.4985L5.9205 19.0236L5.91608 19.0304L5.91211 19.0374C5.57944 19.6289 5.74832 20.3956 6.37785 20.7481L6.38121 20.75C6.9959 21.0819 7.73573 20.8863 8.08594 20.286L8.08628 20.2862L8.09262 20.2738L8.91775 18.659C9.86927 19.0363 10.9078 19.25 12 19.25C13.0922 19.25 14.1307 19.0363 15.0822 18.659L15.9074 20.2738L15.907 20.2739L15.9141 20.286C16.2643 20.8863 17.0041 21.0819 17.6188 20.75L17.6188 20.75L17.6222 20.7481C18.2517 20.3956 18.4206 19.6289 18.0879 19.0374L18.0839 19.0304L18.0795 19.0236L17.0864 17.4985C18.7294 16.2135 19.8686 14.3233 20.1694 12.161L21.9878 12.2497L21.9878 12.25H22C22.3315 12.25 22.6495 12.1183 22.8839 11.8839C23.1183 11.6495 23.25 11.3315 23.25 11C23.25 10.6685 23.1183 10.3505 22.8839 10.1161C22.6495 9.88171 22.3315 9.75001 22 9.75001V9.74971L21.9878 9.75031L20.1694 9.83901C19.8686 7.67676 18.7294 5.78652 17.0864 4.50157L18.0795 2.97643L18.0839 2.96964L18.0879 2.96258C18.4206 2.37116 18.2517 1.60442 17.6222 1.25189L17.6222 1.25186L17.6188 1.25004C17.0041 0.918103 16.2643 1.11368 15.9141 1.71404L15.9137 1.71385L15.9074 1.72626L15.0822 3.34103C14.1307 2.96369 13.0922 2.75001 12 2.75001C10.9078 2.75001 9.86927 2.96369 8.91775 3.34103L8.09262 1.72626L8.09297 1.72608L8.08594 1.71404C7.73573 1.11368 6.9959 0.918103 6.38121 1.25004L6.3812 1.25001L6.37785 1.25189C5.74832 1.60442 5.57944 2.37116 5.91211 2.96258L5.91608 2.96964L5.9205 2.97643L6.91362 4.50157C5.27059 5.78652 4.1314 7.67676 3.83061 9.83901L2.01218 9.75031ZM8.2815 6.61748L9.6757 8.75077C9.30189 9.12334 9.0246 9.58024 8.87752 10.0901L6.34123 9.96417C6.58804 8.63354 7.2852 7.45715 8.2815 6.61748ZM13.9308 5.58306L12.7711 7.84354C12.5269 7.78286 12.2697 7.75001 12 7.75001C11.7303 7.75001 11.4731 7.78286 11.2289 7.84354L10.0692 5.58306C10.6701 5.36756 11.32 5.25001 12 5.25001C12.68 5.25001 13.3299 5.36756 13.9308 5.58306ZM14.3243 8.75077L15.7185 6.61748C16.7148 7.45715 17.412 8.63354 17.6588 9.96417L15.1225 10.0901C14.9754 9.58024 14.6981 9.12334 14.3243 8.75077ZM15.7185 15.3825L14.3243 13.2493C14.6981 12.8767 14.9754 12.4198 15.1225 11.9099L17.6588 12.0359C17.412 13.3665 16.7148 14.5429 15.7185 15.3825ZM10.0685 16.4167L11.2201 14.1555C11.4695 14.2166 11.728 14.25 12 14.25C12.272 14.25 12.5305 14.2166 12.7799 14.1555L13.9315 16.4167C13.3305 16.6324 12.6803 16.75 12 16.75C11.3197 16.75 10.6695 16.6324 10.0685 16.4167ZM8.2815 15.3825C7.2852 14.5429 6.58804 13.3665 6.34123 12.0359L8.87752 11.9099C9.0246 12.4198 9.30189 12.8767 9.6757 13.2493L8.2815 15.3825Z" fill="black" stroke="white" stroke-width="0.5"/>
</svg>
