<svg width="24" height="20" viewBox="0 0 24 20" fill="none" xmlns="http://www.w3.org/2000/svg">
<path d="M2.00609 8.87516L2.0061 8.87501H2C1.70163 8.87501 1.41548 8.99354 1.2045 9.20452C0.993526 9.41549 0.875 9.70164 0.875 10C0.875 10.2984 0.993526 10.5845 1.2045 10.7955C1.41548 11.0065 1.70163 11.125 2 11.125V11.1252L2.00609 11.1249L3.93948 11.0306C4.21603 13.2466 5.38533 15.1815 7.08135 16.4699L6.02525 18.0918L6.02503 18.0917L6.02105 18.0987C5.71972 18.6344 5.87416 19.3228 6.43892 19.6391L6.44061 19.64C6.99795 19.941 7.66287 19.7632 7.97797 19.223L7.97814 19.2231L7.98131 19.2169L8.85852 17.5002C9.82454 17.8985 10.8839 18.125 12 18.125C13.1161 18.125 14.1755 17.8985 15.1415 17.5002L16.0187 19.2169L16.0185 19.217L16.022 19.223C16.3371 19.7632 17.002 19.941 17.5594 19.64L17.5594 19.64L17.5611 19.6391C18.1258 19.3228 18.2803 18.6344 17.9789 18.0987L17.9792 18.0986L17.9748 18.0918L16.9186 16.4699C18.6147 15.1815 19.784 13.2466 20.0605 11.0306L21.9939 11.1249L21.9939 11.125H22C22.2984 11.125 22.5845 11.0065 22.7955 10.7955C23.0065 10.5845 23.125 10.2984 23.125 10C23.125 9.70164 23.0065 9.41549 22.7955 9.20452C22.5845 8.99354 22.2984 8.87501 22 8.87501V8.87486L21.9939 8.87516L20.0605 8.96947C19.784 6.75344 18.6147 4.81855 16.9186 3.5301L17.9748 1.90822L17.975 1.90836L17.9789 1.90129C18.2803 1.36559 18.1258 0.677217 17.5611 0.360949L17.5611 0.360936L17.5594 0.360024C17.002 0.0590574 16.3371 0.236847 16.022 0.777028L16.0219 0.77693L16.0187 0.783134L15.1415 2.49982C14.1755 2.10155 13.1161 1.87501 12 1.87501C10.8839 1.87501 9.82454 2.10155 8.85852 2.49982L7.98131 0.783134L7.98148 0.783045L7.97797 0.777028C7.66287 0.236847 6.99795 0.0590574 6.44061 0.360024L6.4406 0.360011L6.43892 0.360949C5.87416 0.677218 5.71972 1.36559 6.02105 1.90129L6.02082 1.90142L6.02525 1.90822L7.08135 3.5301C5.38533 4.81855 4.21603 6.75344 3.93948 8.96947L2.00609 8.87516ZM8.30984 5.43236L9.83688 7.76891C9.41643 8.16186 9.11295 8.66013 8.97191 9.21999L6.19397 9.08201C6.42963 7.61685 7.19776 6.32413 8.30984 5.43236ZM14.1062 4.51503L12.8364 6.99021C12.5737 6.91579 12.2948 6.87501 12 6.87501C11.7052 6.87501 11.4263 6.91579 11.1636 6.99021L9.89384 4.51503C10.5449 4.26319 11.2549 4.12501 12 4.12501C12.7451 4.12501 13.4551 4.26319 14.1062 4.51503ZM14.1631 7.76891L15.6902 5.43236C16.8022 6.32413 17.5704 7.61685 17.806 9.08201L15.0281 9.21999C14.887 8.66013 14.5836 8.16186 14.1631 7.76891ZM15.6902 14.5677L14.1631 12.2311C14.5836 11.8382 14.887 11.3399 15.0281 10.78L17.806 10.918C17.5704 12.3832 16.8022 13.6759 15.6902 14.5677ZM9.89347 15.4848L11.1543 13.0092C11.4242 13.0839 11.7038 13.125 12 13.125C12.2962 13.125 12.5758 13.0839 12.8457 13.0092L14.1065 15.4848C13.4554 15.7368 12.7452 15.875 12 15.875C11.2548 15.875 10.5446 15.7368 9.89347 15.4848ZM8.30984 14.5677C7.19776 13.6759 6.42963 12.3832 6.19397 10.918L8.97191 10.78C9.11295 11.3399 9.41643 11.8382 9.83688 12.2311L8.30984 14.5677Z" fill="white" stroke="black" stroke-width="0.25"/>
</svg>
